<svg id="svg" version="1.1" xmlns="http://www.w3.org/2000/svg" xmlns:xlink="http://www.w3.org/1999/xlink" width="400" height="400" viewBox="0, 0, 400,400"><g id="svgg"><path id="path0" d="M55.959 1.143 C 48.991 3.637,42.679 11.613,41.806 19.030 C 41.546 21.239,41.437 104.258,41.565 203.516 L 41.797 383.984 43.517 387.200 C 46.069 391.971,48.950 395.088,53.012 397.476 L 56.641 399.609 200.000 399.609 L 343.359 399.609 346.988 397.476 C 351.050 395.088,353.931 391.971,356.483 387.200 L 358.203 383.984 358.409 242.748 L 358.615 101.512 356.687 99.584 C 353.988 96.885,349.892 96.945,347.713 99.715 L 346.094 101.773 346.093 240.535 C 346.091 395.675,346.572 382.845,340.625 386.302 C 337.934 387.866,336.700 387.894,262.305 388.101 L 186.719 388.311 186.719 200.000 L 186.719 11.689 262.305 11.899 C 336.700 12.106,337.934 12.134,340.625 13.698 C 346.026 16.837,346.091 17.267,346.093 49.631 C 346.094 81.352,346.100 81.394,350.725 82.410 C 353.641 83.050,357.634 81.060,358.235 78.668 C 359.699 72.834,358.187 15.985,356.483 12.800 C 353.931 8.029,351.050 4.912,346.988 2.524 L 343.359 0.391 201.172 0.225 C 81.652 0.086,58.502 0.232,55.959 1.143 M174.219 200.020 L 174.219 388.321 118.164 388.106 C 55.162 387.864,58.388 388.177,55.275 382.005 C 53.429 378.346,53.119 22.928,54.957 18.530 C 57.835 11.645,56.433 11.792,119.336 11.753 L 174.219 11.719 174.219 200.020 M103.906 44.969 C 68.140 52.678,55.186 97.454,81.179 123.527 C 105.648 148.070,146.912 138.783,158.358 106.157 C 170.424 71.764,139.710 37.251,103.906 44.969 M120.344 57.037 C 143.163 61.365,156.965 92.149,143.377 108.411 C 142.222 109.794,132.910 98.283,133.637 96.371 C 136.077 89.954,133.899 80.113,128.942 75.156 C 113.517 59.731,88.362 75.193,94.664 96.227 C 95.518 99.078,95.454 99.361,93.687 100.559 C 92.647 101.264,90.292 103.448,88.454 105.413 C 84.685 109.439,84.658 109.428,82.086 102.646 C 72.821 78.220,94.674 52.169,120.344 57.037 M234.375 62.176 C 208.407 69.040,205.220 105.392,229.536 117.364 C 242.447 123.720,263.281 117.741,263.281 107.679 C 263.281 102.281,256.160 99.302,252.660 103.235 C 243.602 113.417,225.476 105.009,225.476 90.625 C 225.476 78.120,238.889 69.836,249.829 75.586 C 256.233 78.952,261.719 76.831,261.719 70.988 C 261.719 64.001,246.287 59.028,234.375 62.176 M280.308 62.148 C 276.215 64.369,276.547 66.202,285.891 92.961 C 294.422 117.392,295.246 119.092,299.023 120.040 C 305.268 121.608,306.339 119.800,315.430 92.360 C 324.498 64.989,324.243 66.310,321.062 63.130 C 315.253 57.321,312.538 60.433,305.813 80.607 L 300.567 96.348 297.940 88.994 C 296.495 84.950,294.031 77.794,292.464 73.092 C 288.607 61.520,285.920 59.101,280.308 62.148 M119.698 84.144 C 123.490 87.777,122.324 94.283,117.434 96.784 C 114.355 98.359,111.712 97.806,108.906 95.000 C 101.271 87.365,111.900 76.674,119.698 84.144 M111.828 109.859 C 113.867 110.137,117.213 109.931,119.475 109.388 C 124.685 108.139,135.282 115.386,133.191 118.769 C 128.713 126.015,104.449 126.516,95.930 119.540 L 94.141 118.074 99.078 113.253 C 103.299 109.131,104.318 108.500,106.109 108.899 C 107.261 109.155,109.834 109.588,111.828 109.859 M208.873 154.681 C 204.848 156.305,203.620 160.932,206.307 164.348 L 207.926 166.406 266.016 166.406 L 324.105 166.406 325.725 164.348 C 328.484 160.840,327.256 156.136,323.213 154.726 C 320.316 153.716,211.370 153.673,208.873 154.681 M74.609 181.560 C 68.487 184.311,67.188 187.847,67.188 201.757 C 67.188 214.584,68.307 218.156,73.298 221.260 L 76.172 223.047 114.063 223.047 C 163.142 223.047,160.383 224.262,160.791 202.478 C 161.061 188.075,160.622 186.500,155.217 182.494 C 152.400 180.406,79.068 179.557,74.609 181.560 M208.873 190.611 C 204.845 192.255,203.621 196.870,206.307 200.285 L 207.926 202.344 266.016 202.344 L 324.105 202.344 325.725 200.285 C 327.854 197.578,327.771 195.115,325.458 192.426 L 323.573 190.234 267.060 190.081 C 235.978 189.996,209.793 190.235,208.873 190.611 M148.438 201.953 L 148.438 210.938 114.063 210.938 L 79.688 210.938 79.688 201.953 L 79.688 192.969 114.063 192.969 L 148.438 192.969 148.438 201.953 M209.586 226.313 C 205.315 227.181,203.503 232.658,206.307 236.223 L 207.926 238.281 238.607 238.281 C 273.084 238.281,271.935 238.481,272.106 232.454 C 272.286 226.126,272.588 226.186,240.018 226.065 C 224.239 226.007,210.544 226.118,209.586 226.313 M76.871 242.912 C 68.992 244.842,67.002 249.478,67.327 265.151 C 67.671 281.726,69.712 284.540,81.754 285.043 C 94.779 285.588,97.405 273.750,84.467 272.814 L 79.638 272.465 79.858 263.772 L 80.078 255.078 114.258 254.875 L 148.438 254.671 148.438 263.664 L 148.438 272.656 130.506 272.656 C 108.797 272.656,105.706 273.743,107.466 280.757 C 108.527 284.984,109.478 285.156,131.699 285.156 C 160.118 285.156,160.938 284.571,160.938 264.260 C 160.938 250.320,160.259 248.000,155.209 244.657 L 152.069 242.578 115.683 242.448 C 95.671 242.377,78.205 242.585,76.871 242.912 M206.307 264.558 C 205.416 265.691,204.688 267.401,204.688 268.359 C 204.688 269.318,205.416 271.028,206.307 272.160 L 207.926 274.219 266.016 274.219 L 324.105 274.219 325.725 272.160 C 327.779 269.549,327.779 267.170,325.725 264.558 L 324.105 262.500 266.016 262.500 L 207.926 262.500 206.307 264.558 M206.307 300.496 C 205.416 301.628,204.688 303.339,204.688 304.297 C 204.688 305.255,205.416 306.966,206.307 308.098 L 207.926 310.156 266.016 310.156 L 324.105 310.156 325.725 308.098 C 327.779 305.486,327.779 303.108,325.725 300.496 L 324.105 298.438 266.016 298.438 L 207.926 298.438 206.307 300.496 M74.515 305.798 C 68.722 308.347,67.607 311.346,67.329 325.125 C 66.868 348.041,65.140 347.201,113.281 347.483 L 150.391 347.701 153.861 345.921 C 160.107 342.716,160.512 341.594,160.791 326.697 C 161.061 312.294,160.622 310.719,155.217 306.712 C 152.377 304.608,79.108 303.778,74.515 305.798 M148.438 326.172 L 148.438 335.156 114.063 335.156 L 79.688 335.156 79.688 326.172 L 79.688 317.188 114.063 317.188 L 148.438 317.188 148.438 326.172 M206.605 337.074 C 203.626 340.053,204.511 345.050,208.326 346.789 C 211.677 348.316,267.177 347.967,269.407 346.406 C 272.975 343.906,273.029 337.810,269.500 335.921 C 268.640 335.461,256.225 335.156,238.297 335.156 L 208.523 335.156 206.605 337.074 " stroke="none" fill="#000000" fill-rule="evenodd"></path></g></svg>