<svg id="svg" version="1.1" xmlns="http://www.w3.org/2000/svg" xmlns:xlink="http://www.w3.org/1999/xlink" width="400" height="400" viewBox="0, 0, 400,400"><g id="svgg"><path id="path0" d="M179.688 0.486 C 93.613 10.693,25.587 69.738,5.478 151.697 C -3.290 187.431,-1.561 230.182,10.024 264.127 C 57.853 404.268,235.699 446.322,340.906 342.368 C 405.390 278.651,419.128 176.883,373.639 99.884 C 368.346 90.924,360.454 89.284,357.183 96.463 C 355.561 100.023,356.083 101.661,363.543 116.425 C 396.847 182.339,388.843 258.905,342.678 316.016 C 335.573 324.805,322.808 337.306,322.384 335.890 C 303.902 274.188,259.506 239.062,200.000 239.062 C 140.494 239.062,96.098 274.188,77.616 335.890 C 77.394 336.632,74.747 334.509,69.827 329.640 C 8.364 268.820,-1.443 170.656,46.759 98.730 C 105.622 10.895,223.057 -10.293,308.519 51.502 C 319.676 59.570,329.552 55.267,325.301 44.190 C 323.066 38.363,287.164 17.971,266.813 10.969 C 241.077 2.114,203.794 -2.372,179.688 0.486 M337.997 66.122 C 336.353 67.767,335.938 68.926,335.938 71.875 C 335.938 74.824,336.353 75.983,337.997 77.628 C 343.112 82.742,351.563 79.158,351.563 71.875 C 351.563 64.592,343.112 61.008,337.997 66.122 M182.265 84.747 C 132.890 97.509,113.022 157.552,144.964 197.475 C 181.004 242.519,254.208 226.567,268.412 170.573 C 281.563 118.730,234.025 71.369,182.265 84.747 M212.333 100.496 C 230.733 104.329,247.557 120.737,252.366 139.539 C 265.959 192.689,200.850 229.837,162.069 191.056 C 123.555 152.542,158.649 89.313,212.333 100.496 M215.234 256.315 C 255.030 261.397,289.958 290.252,303.104 328.906 C 304.698 333.593,307.756 346.124,307.796 348.129 C 307.865 351.658,277.903 367.662,259.068 374.157 C 204.962 392.813,135.544 382.721,93.867 350.139 L 92.030 348.703 93.366 342.157 C 104.877 285.716,157.148 248.898,215.234 256.315 " stroke="none" fill="#000000" fill-rule="evenodd"></path></g></svg>